<?xml version="1.0" encoding="UTF-8"?>
<!DOCTYPE svg PUBLIC "-//W3C//DTD SVG 1.1//EN" "http://www.w3.org/Graphics/SVG/1.1/DTD/svg11.dtd">
<!-- Creator: CorelDRAW X6 -->
<svg xmlns="http://www.w3.org/2000/svg" xml:space="preserve" width="2.94444in" height="2.08333in" version="1.1" style="shape-rendering:geometricPrecision; text-rendering:geometricPrecision; image-rendering:optimizeQuality; fill-rule:evenodd; clip-rule:evenodd"
viewBox="0 0 2944 2083"
 xmlns:xlink="http://www.w3.org/1999/xlink">
 <defs>
  <style type="text/css">
   <![CDATA[
    .fil0 {fill:#0072B9}
    .fil2 {fill:#F9DE33}
    .fil3 {fill:#FBC532}
    .fil1 {fill:#FEFEFE}
   ]]>
  </style>
 </defs>
 <g id="Layer_x0020_1">
  <metadata id="CorelCorpID_0Corel-Layer"/>
  <path class="fil0" d="M287 1106c0,0 -193,-36 -200,21 -26,81 -41,215 -47,239 -6,23 -38,195 -38,195 0,0 -5,62 53,62 58,0 149,6 161,-10 12,-16 25,-35 25,-35 16,-8 42,40 46,45 14,0 137,5 172,-2 19,-27 30,-39 30,-39 10,-17 43,33 51,39 12,0 225,1 225,1 0,0 21,-4 16,18 -5,21 -73,355 -73,355 0,0 -17,72 54,74 70,2 231,0 231,0 0,0 63,6 76,-52 45,-3 67,-2 108,0 0,0 62,58 157,55 95,-3 175,-58 171,-51 0,0 18,19 70,22 53,4 104,2 122,-7 16,-8 36,-38 36,-71 0,-21 3,-48 7,-61 23,-2 69,134 178,139 112,4 196,-6 224,-54 14,-40 -2,-92 4,-131 6,-40 55,-55 88,-48 18,4 25,11 47,10 30,-1 45,-5 65,-11 10,-4 33,12 53,12 32,3 40,-11 53,-9 9,-1 8,10 35,13 0,0 36,3 52,-13 11,-3 7,5 25,10 0,0 33,8 54,-8 14,-8 32,9 45,9 12,0 70,-2 77,-74 8,-72 11,-147 11,-147 0,0 130,-67 164,-163 34,-96 52,-208 -44,-297 -96,-89 -282,-69 -322,-38 -40,20 -66,39 -66,39 0,0 14,-91 10,-113 -5,-22 -12,-48 -77,-48 -65,0 -119,-5 -134,34 -14,38 -22,111 -22,111 0,0 -114,-9 -161,46 -38,-72 -109,-73 -191,-73 -77,5 -156,21 -205,67 -41,-27 -69,-26 -132,-26 -63,0 -123,26 -123,26 0,0 4,-65 -51,-76 -55,-11 -78,11 -94,18 -16,7 -50,-16 -101,-14 -51,2 -66,30 -82,43 0,0 -65,-44 -152,-39 -87,4 -138,44 -170,77 -26,27 -38,-87 -146,-89 -107,-3 -128,27 -154,38 0,0 -56,-41 -117,-38 -61,3 -94,21 -94,21zm2524 502c4,0 8,1 11,2 3,1 7,4 9,6 3,3 5,6 6,9 1,3 2,7 2,11 0,4 -1,8 -2,11 -1,3 -3,6 -6,9 -3,3 -6,5 -9,6 -4,1 -7,2 -11,2 -4,0 -7,-1 -11,-2 -3,-1 -7,-4 -9,-6 -3,-3 -5,-6 -6,-9 -1,-3 -2,-7 -2,-11 0,-4 1,-7 2,-11 1,-4 4,-7 6,-9 3,-3 6,-5 9,-6 3,-1 7,-2 11,-2zm25 29c0,-3 -1,-7 -2,-10 -1,-3 -3,-6 -5,-8 -2,-2 -5,-4 -8,-6 -3,-1 -6,-2 -10,-2 -3,0 -7,1 -10,2 -3,1 -6,3 -8,5 -2,2 -4,5 -6,8 -1,3 -2,6 -2,10 0,3 1,7 2,10 1,3 3,6 6,8 2,2 5,4 8,6 3,1 6,2 10,2 3,0 7,-1 10,-2 3,-1 6,-3 8,-6 2,-2 4,-5 5,-8 1,-3 2,-6 2,-10zm-24 -17c5,0 8,1 10,2 2,1 3,4 3,7 0,2 -1,4 -2,6 -1,2 -3,3 -6,3l7 15 -6 0 -7 -14 -8 0 0 14 -5 0 0 -33 12 0zm-1 3l-6 0 0 12 6 0c3,0 6,0 7,-1 1,-1 2,-2 2,-4 0,-2 -1,-4 -2,-5 -1,-1 -4,-1 -7,-1z"/>
  <path class="fil0" d="M1510 11c488,0 884,216 884,483 0,266 -396,483 -884,483 -488,0 -884,-216 -884,-483 0,-266 396,-483 884,-483z"/>
  <path class="fil1" d="M1502 50c453,0 820,188 820,421 0,132 -105,225 -269,312 -8,4 -15,6 -20,8 -12,5 -16,-2 -8,-7 63,-42 113,-90 152,-133 65,-73 57,-204 57,-204l-59 2c-10,0 -145,20 -181,35 -27,3 -119,36 -161,56 -17,8 -23,8 -32,-5 -4,-6 -9,-11 -13,-17 -23,-18 -45,-36 -68,-54 -41,-34 -81,-67 -122,-101 -19,-13 -39,-22 -66,-31 -39,-7 -99,12 -93,16 9,-10 96,-10 103,0 88,64 175,130 255,217 13,14 9,34 -2,47 -11,13 -36,8 -59,-9 -12,-9 -135,-96 -135,-96 23,39 72,73 101,98 20,14 36,48 16,67 -15,15 -47,5 -62,-7 -27,-16 -51,-42 -83,-53 0,0 45,45 58,55 12,11 17,34 11,44 -6,11 -20,16 -31,16 -29,0 -35,-23 -59,-36 8,18 29,28 23,47 0,12 -50,21 -67,11 -19,-16 24,-72 -62,-97 -3,-66 -51,-69 -76,-69 0,0 -15,7 -20,-7 -11,-19 -43,-26 -65,-18 -20,7 -26,23 -38,23 -6,0 -7,-9 -9,-16 -21,-35 -59,-19 -75,-21 -16,-2 -99,-40 -136,-51 -37,-12 -165,-45 -186,-52 -23,-8 -55,-18 -60,-7 -4,20 -30,187 193,343 20,15 24,25 -10,11 -172,-77 -281,-191 -281,-317 0,-232 367,-421 819,-421zm-519 149c344,-174 791,-141 1073,17 2,4 -156,97 -236,93 -74,11 -173,-12 -213,-31 -42,-22 -168,-33 -212,-2 -47,25 -64,72 -64,72 0,0 -6,-24 -14,-25 -8,-2 -62,0 -81,-2 -87,-6 -180,-75 -252,-121z"/>
  <path class="fil1" d="M1190 560c18,0 47,19 47,36 0,18 -4,23 -22,23 -18,0 -47,-19 -47,-36 0,-18 4,-23 22,-23z"/>
  <path class="fil1" d="M1325 584c7,5 11,12 13,21 21,-10 46,-11 61,0 22,16 25,49 5,75 -20,26 -54,38 -76,22 -11,-8 -19,-21 -22,-35 -15,7 -31,7 -43,-2 -18,-13 -25,-45 -9,-66 16,-22 51,-28 69,-15z"/>
  <path class="fil1" d="M1482 743c-11,17 -46,22 -66,8 -20,-14 -27,-37 -16,-54 11,-17 38,-38 66,-21 28,17 26,50 15,66z"/>
  <path class="fil2" d="M860 473c12,-14 255,74 289,102 12,29 18,56 73,54 6,28 25,73 86,65 5,28 28,43 71,45 19,50 109,51 126,18 35,14 76,23 110,-18 21,3 50,-5 68,-39 43,0 74,-31 81,-61 50,1 60,-32 73,-73 141,-76 318,-97 318,-97 -9,245 -236,427 -666,427 -430,1 -611,-206 -628,-425z"/>
  <path class="fil2" d="M1121 184c70,-52 203,-73 387,-75 184,-1 309,35 426,87 25,11 12,42 -16,61 -27,18 -57,27 -65,29 -47,11 -131,0 -197,-24 -50,-24 -83,-31 -160,-30 -77,1 -109,10 -179,59 -96,45 -265,-55 -196,-107z"/>
  <path class="fil1" d="M974 1151c58,0 163,25 149,122 -12,35 -17,113 -240,104 -31,3 12,104 186,40l-1 80c-28,13 -132,38 -204,11 -97,-47 -115,-186 -47,-270 35,-43 93,-88 157,-88zm-95 155c18,-58 94,-104 137,-74 37,37 -4,65 -74,75 -21,3 -42,0 -63,0zm771 -107l-17 83c-130,-10 -173,36 -177,112 -5,75 58,80 142,62l-3 82c-201,38 -249,-32 -249,-146 5,-114 117,-221 304,-192zm703 442l-7 32c-50,-4 -67,14 -69,43 -2,29 22,31 55,24l-1 32c-78,15 -96,-13 -96,-57 2,-44 45,-85 118,-74zm327 -511c122,-8 217,82 209,214 -9,132 -161,242 -290,232 -129,-10 -189,-84 -180,-215 9,-131 139,-223 261,-230zm17 103c42,17 61,83 34,150 -28,67 -86,104 -128,86 -42,-17 -61,-84 -34,-151 28,-67 86,-102 128,-85zm-288 406c36,-11 74,8 81,48 6,40 -28,84 -67,90 -39,6 -63,-15 -69,-55 -6,-40 20,-72 56,-83zm19 25c14,2 22,23 18,45 -4,22 -17,42 -34,39 -17,-3 -27,-26 -23,-47 4,-22 25,-39 39,-37zm-1246 -512c0,0 2,40 -2,59 -3,19 -56,277 -56,277l101 0c0,0 19,-150 35,-174 32,-49 44,-73 109,-77l17 -88c-11,0 -88,-3 -121,59l1 -55 -83 0zm806 245c0,21 0,116 0,116l-103 0 0 -49c-60,57 -118,85 -179,43 -60,-42 -71,-180 4,-268 68,-80 206,-103 301,-70 11,4 24,5 21,16 -17,64 -45,144 -45,212zm371 30c-8,70 -4,115 -4,115l-103 0 0 -49c-60,57 -118,85 -179,43 -60,-42 -64,-174 4,-268 47,-65 131,-89 224,-77l30 -152 107 0c-30,124 -72,319 -79,388zm-448 -191c1,0 -3,79 -31,139 -17,37 -53,79 -91,60 -38,-19 -33,-88 -5,-131 28,-43 79,-74 127,-68zm372 28c1,0 -3,79 -31,139 -17,37 -53,79 -91,60 -38,-19 -33,-88 -5,-131 28,-43 79,-74 127,-68zm-76 463c13,0 24,11 24,25 0,14 -11,25 -24,25 -13,0 -24,-11 -24,-25 0,-14 11,-25 24,-25zm-2076 -578c0,0 3,27 1,43 -3,16 -73,367 -73,367 43,0 79,0 121,0 12,-71 50,-324 141,-321 26,1 45,23 36,83 -16,79 -30,159 -46,238 40,0 80,0 120,0 12,-70 44,-332 137,-321 24,0 49,20 40,81 -16,80 -30,160 -46,240 40,0 81,0 121,0 0,0 0,0 0,0 25,-111 44,-220 52,-331 1,-30 -32,-84 -97,-83 -53,-4 -110,18 -143,62 -6,2 -9,4 -14,0 -21,-37 -40,-63 -100,-63 -64,1 -101,28 -134,64 0,0 -6,3 -6,0 0,-19 -1,-38 -1,-57 -36,0 -72,0 -109,0zm2379 489c0,0 1,9 0,14 -1,5 -23,120 -23,120 13,0 24,0 38,0 4,-23 15,-106 43,-105 8,0 14,8 11,27 -5,26 -9,52 -14,78 12,0 25,0 37,0 4,-23 14,-109 42,-105 8,0 15,7 12,27 -5,26 -9,52 -14,79 12,0 25,0 37,0 0,0 0,0 0,0 8,-36 14,-72 16,-109 0,-10 -10,-28 -30,-27 -16,-1 -34,6 -44,20 -2,1 -3,1 -4,0 -7,-12 -12,-21 -31,-21 -20,0 -31,9 -41,21 0,0 -2,1 -2,0 0,-6 0,-13 0,-19 -11,0 -22,0 -34,0z"/>
  <path class="fil2" d="M1515 1665c70,47 62,150 7,250 -65,112 -222,112 -265,90 -43,-22 -44,-63 -43,-131 18,-111 43,-236 66,-346l105 1 -33 164c46,-47 115,-55 163,-28zm-93 71c29,11 41,60 20,119 -21,58 -66,91 -95,80 -29,-11 -42,-60 -21,-119 21,-58 67,-91 97,-80zm198 -114c0,0 0,62 -4,84 -4,22 -57,281 -57,281l113 0c0,0 23,-167 39,-196 32,-58 48,-69 119,-71l16 -106c-13,0 -92,-2 -129,68l0 -59 -97 0zm-771 -65l111 0 -65 353 122 0 -19 106 -231 0 81 -459zm311 -28c33,0 60,29 60,64 0,35 -27,64 -60,64 -33,0 -60,-29 -60,-64 0,-35 27,-64 60,-64zm-71 169l105 0 -54 263 -107 0 56 -263zm816 80c17,-58 91,-104 132,-74 35,37 -4,65 -71,75 -20,3 -41,0 -61,0zm91 -155c55,0 157,25 143,122 -11,35 -16,112 -231,104 -30,2 11,104 179,40l-1 80c-27,12 -127,38 -196,11 -93,-47 -111,-186 -45,-269 34,-43 90,-88 151,-88z"/>
  <path class="fil3" d="M860 473c12,-14 255,74 289,102 12,29 18,56 73,54 6,28 25,73 86,65 5,28 28,43 71,45 19,50 109,51 126,18 35,14 76,23 110,-18 21,3 50,-5 68,-39 43,0 74,-31 81,-61 50,1 60,-32 73,-73 141,-76 318,-97 318,-97 0,9 -1,18 -2,26 -11,-2 -46,3 -129,23 -81,15 -149,46 -160,62 -13,63 -42,88 -78,97 -13,39 -43,55 -81,49 -15,29 -37,40 -70,43 -32,44 -97,34 -120,15 -33,23 -113,35 -151,-15 -46,10 -82,-32 -80,-49 -62,4 -72,-35 -73,-55 0,0 -31,-6 -55,-25 -23,-19 -42,-48 -57,-61 -15,-13 -149,-60 -174,-71 -25,-12 -61,-29 -61,-29 0,0 -1,0 -1,0 0,-3 0,-5 -1,-8z"/>
 </g>
</svg>
